<?xml version="1.0" encoding="UTF-8" standalone="no"?>
<!-- Created with Inkscape (http://www.inkscape.org/) -->

<svg
   xmlns:dc="http://purl.org/dc/elements/1.1/"
   xmlns:cc="http://creativecommons.org/ns#"
   xmlns:rdf="http://www.w3.org/1999/02/22-rdf-syntax-ns#"
   xmlns:svg="http://www.w3.org/2000/svg"
   xmlns="http://www.w3.org/2000/svg"
   xmlns:sodipodi="http://sodipodi.sourceforge.net/DTD/sodipodi-0.dtd"
   xmlns:inkscape="http://www.inkscape.org/namespaces/inkscape"
   width="744.09448819"
   height="1052.3622047"
   id="svg2"
   version="1.1"
   inkscape:version="0.48.2 r9819"
   sodipodi:docname="New document 1">
  <defs
     id="defs4" />
  <sodipodi:namedview
     id="base"
     pagecolor="#ffffff"
     bordercolor="#666666"
     borderopacity="1.0"
     inkscape:pageopacity="0.0"
     inkscape:pageshadow="2"
     inkscape:zoom="1.979899"
     inkscape:cx="466.50892"
     inkscape:cy="658.88147"
     inkscape:document-units="px"
     inkscape:current-layer="layer1"
     showgrid="false"
     inkscape:window-width="1680"
     inkscape:window-height="987"
     inkscape:window-x="-8"
     inkscape:window-y="-8"
     inkscape:window-maximized="1" />
  <metadata
     id="metadata7">
    <rdf:RDF>
      <cc:Work
         rdf:about="">
        <dc:format>image/svg+xml</dc:format>
        <dc:type
           rdf:resource="http://purl.org/dc/dcmitype/StillImage" />
        <dc:title></dc:title>
      </cc:Work>
    </rdf:RDF>
  </metadata>
  <g
     inkscape:label="Layer 1"
     inkscape:groupmode="layer"
     id="layer1">
    <g
       id="g3058"
       transform="translate(402.11736,365.90811)">
      <g
         id="g2986">
	<path
   id="path2988"
   d="M 19.982,14.438 13.742,9.902 C 13.513,9.736 13.209,9.711 12.958,9.84 c -0.253,0.128 -0.411,0.388 -0.411,0.669 v 9.069 c 0,0.284 0.158,0.543 0.411,0.671 0.107,0.054 0.224,0.081 0.342,0.081 0.154,0 0.31,-0.049 0.442,-0.146 l 6.24,-4.532 c 0.197,-0.145 0.312,-0.369 0.312,-0.607 0.001,-0.242 -0.117,-0.465 -0.312,-0.607 z"
   inkscape:connector-curvature="0" />

	<path
   id="path2990"
   d="M 15.026,0.002 C 6.726,0.002 0,6.728 0,15.028 c 0,8.297 6.726,15.021 15.026,15.021 8.298,0 15.025,-6.725 15.025,-15.021 C 30.052,6.728 23.324,0.002 15.026,0.002 z m 0,27.54 C 8.114,27.542 2.51,21.941 2.51,15.028 2.51,8.118 8.114,2.51 15.026,2.51 c 6.911,0 12.514,5.607 12.514,12.518 0.001,6.913 -5.603,12.514 -12.514,12.514 z"
   inkscape:connector-curvature="0" />

	<g
   id="g2992">
	</g>

	<g
   id="g2994">
	</g>

	<g
   id="g2996">
	</g>

	<g
   id="g2998">
	</g>

	<g
   id="g3000">
	</g>

	<g
   id="g3002">
	</g>

	<g
   id="g3004">
	</g>

	<g
   id="g3006">
	</g>

	<g
   id="g3008">
	</g>

	<g
   id="g3010">
	</g>

	<g
   id="g3012">
	</g>

	<g
   id="g3014">
	</g>

	<g
   id="g3016">
	</g>

	<g
   id="g3018">
	</g>

	<g
   id="g3020">
	</g>

</g>
      <g
         id="g3022">
</g>
      <g
         id="g3024">
</g>
      <g
         id="g3026">
</g>
      <g
         id="g3028">
</g>
      <g
         id="g3030">
</g>
      <g
         id="g3032">
</g>
      <g
         id="g3034">
</g>
      <g
         id="g3036">
</g>
      <g
         id="g3038">
</g>
      <g
         id="g3040">
</g>
      <g
         id="g3042">
</g>
      <g
         id="g3044">
</g>
      <g
         id="g3046">
</g>
      <g
         id="g3048">
</g>
      <g
         id="g3050">
</g>
    </g>
  </g>
</svg>
