<?xml version="1.0" encoding="UTF-8" standalone="no"?>
<!-- Created with Inkscape (http://www.inkscape.org/) -->

<svg
   xmlns:dc="http://purl.org/dc/elements/1.1/"
   xmlns:cc="http://creativecommons.org/ns#"
   xmlns:rdf="http://www.w3.org/1999/02/22-rdf-syntax-ns#"
   xmlns:svg="http://www.w3.org/2000/svg"
   xmlns="http://www.w3.org/2000/svg"
   xmlns:sodipodi="http://sodipodi.sourceforge.net/DTD/sodipodi-0.dtd"
   xmlns:inkscape="http://www.inkscape.org/namespaces/inkscape"
   width="744.09448819"
   height="1052.3622047"
   id="svg2"
   version="1.1"
   inkscape:version="0.48.2 r9819"
   sodipodi:docname="graphics.svg">
  <defs
     id="defs4">















	
	
	
	
	
	
	
	
	
	
	
	
	
	
	
	
	

	
	
	
	
	
	
	
	
	
	
	
	
	
	
	</defs>
  <sodipodi:namedview
     id="base"
     pagecolor="#ffffff"
     bordercolor="#666666"
     borderopacity="1.0"
     inkscape:pageopacity="0.0"
     inkscape:pageshadow="2"
     inkscape:zoom="15.839192"
     inkscape:cx="443.59895"
     inkscape:cy="655.09755"
     inkscape:document-units="px"
     inkscape:current-layer="layer1"
     showgrid="false"
     inkscape:window-width="1680"
     inkscape:window-height="987"
     inkscape:window-x="-8"
     inkscape:window-y="-8"
     inkscape:window-maximized="1" />
  <metadata
     id="metadata7">
    <rdf:RDF>
      <cc:Work
         rdf:about="">
        <dc:format>image/svg+xml</dc:format>
        <dc:type
           rdf:resource="http://purl.org/dc/dcmitype/StillImage" />
        <dc:title></dc:title>
      </cc:Work>
    </rdf:RDF>
  </metadata>
  <g
     inkscape:label="Layer 1"
     inkscape:groupmode="layer"
     id="layer1">
    <path
       id="path2988"
       d="m 422.09936,380.34611 -6.24,-4.536 c -0.229,-0.166 -0.533,-0.191 -0.784,-0.062 -0.253,0.128 -0.411,0.388 -0.411,0.669 v 9.069 c 0,0.284 0.158,0.543 0.411,0.671 0.107,0.054 0.224,0.081 0.342,0.081 0.154,0 0.31,-0.049 0.442,-0.146 l 6.24,-4.532 c 0.197,-0.145 0.312,-0.369 0.312,-0.607 10e-4,-0.242 -0.117,-0.465 -0.312,-0.607 z"
       inkscape:connector-curvature="0" />
    <path
       id="path2990"
       d="m 417.14336,365.91011 c -8.3,0 -15.026,6.726 -15.026,15.026 0,8.297 6.726,15.021 15.026,15.021 8.298,0 15.025,-6.725 15.025,-15.021 10e-4,-8.3 -6.727,-15.026 -15.025,-15.026 z m 0,27.54 c -6.912,0 -12.516,-5.601 -12.516,-12.514 0,-6.91 5.604,-12.518 12.516,-12.518 6.911,0 12.514,5.607 12.514,12.518 0.001,6.913 -5.603,12.514 -12.514,12.514 z"
       inkscape:connector-curvature="0" />
    <path
       id="path2988-1"
       d="m 440.90046,404.14063 -6.24,-4.536 c -0.229,-0.166 -0.533,-0.191 -0.784,-0.062 -0.253,0.128 -0.411,0.388 -0.411,0.669 v 9.069 c 0,0.284 0.158,0.543 0.411,0.671 0.107,0.054 0.224,0.081 0.342,0.081 0.154,0 0.31,-0.049 0.442,-0.146 l 6.24,-4.532 c 0.197,-0.145 0.312,-0.369 0.312,-0.607 10e-4,-0.242 -0.117,-0.465 -0.312,-0.607 z"
       inkscape:connector-curvature="0" />
    <path
       id="path2990-7"
       d="m 454.06407,363.56693 c -8.3,0 -15.026,6.726 -15.026,15.026 0,8.297 6.726,15.021 15.026,15.021 8.298,0 15.025,-6.725 15.025,-15.021 0.001,-8.3 -6.727,-15.026 -15.025,-15.026 z m 0,27.54 c -6.912,0 -12.516,-5.601 -12.516,-12.514 0,-6.91 5.604,-12.518 12.516,-12.518 6.911,0 12.514,5.607 12.514,12.518 10e-4,6.913 -5.603,12.514 -12.514,12.514 z"
       inkscape:connector-curvature="0" />
  </g>
</svg>
